<?xml version="1.0" encoding="UTF-8"?>
<svg xmlns="http://www.w3.org/2000/svg" viewBox="26 74 488 531" width="488" height="531">

<g transform="translate(0 531.0) scale(1 -1)">
<!-- Unhandled operator: where -->
<!-- Unhandled operator: ifelse -->
<!-- Unhandled operator: lt -->
<!-- Unhandled operator: if -->
<!-- Unhandled operator: bind -->
<!-- Unhandled operator: bind -->
<!-- Unhandled operator: bind -->
<!-- Unhandled operator: bind -->
<!-- Unhandled operator: bind -->
<!-- Unhandled operator: bind -->
<!-- Unhandled operator: bind -->
<!-- Unhandled operator: bind -->
<!-- Unhandled operator: bind -->
<!-- Unhandled operator: bind -->
<!-- Unhandled operator: bind -->
<!-- Unhandled operator: bind -->
<!-- Unhandled operator: bind -->
<!-- Unhandled operator: bind -->
<!-- Unhandled operator: bind -->
<!-- Unhandled operator: bind -->
<!-- Unhandled operator: bind -->
<!-- Unhandled operator: bind -->
<!-- Unhandled operator: bind -->
<!-- Unhandled operator: bind -->
<!-- Unhandled operator: bind -->
<!-- Unhandled operator: bind -->
<!-- Unhandled operator: bind -->
<!-- Unhandled operator: bind -->
<!-- Unhandled operator: bind -->
<!-- Unhandled operator: bind -->
<!-- Unhandled operator: bind -->
<!-- Unhandled operator: bind -->
<!-- Unhandled operator: bind -->
<!-- Unhandled operator: bind -->
<!-- Unhandled operator: bind -->
<!-- Unhandled operator: bind -->
<!-- Unhandled operator: where -->
<!-- Unhandled operator: ifelse -->
<!-- Unhandled operator: rectclip -->
<!-- Unhandled operator: array -->
<!-- Unhandled operator: astore -->
<!-- Unhandled operator: concat -->
<!-- Unhandled operator: setmiterlimit -->
<!-- Unhandled operator: array -->
<!-- Unhandled operator: astore -->
<!-- Unhandled operator: concat -->
<path d="M 27 -603 L 513 -603" fill="none" stroke="rgb(0, 0, 0)" />
<!-- Unhandled operator: array -->
<!-- Unhandled operator: astore -->
<!-- Unhandled operator: concat -->
<path d="M 513 -603 L 513 -117" fill="none" stroke="rgb(0, 0, 0)" />
<!-- Unhandled operator: array -->
<!-- Unhandled operator: astore -->
<!-- Unhandled operator: concat -->
<path d="M 513 -117 L 27 -117" fill="none" stroke="rgb(0, 0, 0)" />
<!-- Unhandled operator: array -->
<!-- Unhandled operator: astore -->
<!-- Unhandled operator: concat -->
<path d="M 27 -117 L 27 -603" fill="none" stroke="rgb(0, 0, 0)" />
<!-- Unhandled operator: array -->
<!-- Unhandled operator: astore -->
<!-- Unhandled operator: concat -->
<path d="M 432 -495 C 432 -435.355 383.645 -387 324 -387 C 264.355 -387 216 -435.355 216 -495 C 216 -554.645 264.355 -603 324 -603 C 383.645 -603 432 -554.645 432 -495 Z M 432 -495" fill="none" stroke="rgb(0, 0, 0)" />
<!-- Unhandled operator: array -->
<!-- Unhandled operator: astore -->
<!-- Unhandled operator: concat -->
<path d="M 325 -399 L 322 -398" fill="none" stroke="rgb(0, 0, 0)" />
<path d="L 317 -400 L 312 -403 L 306 -409 L 300 -416 L 293 -425 L 286 -435 L 279 -447 L 271 -460 L 264 -473 L 256 -488 L 249 -503 L 242 -519 L 235 -534 L 230 -550 L 224 -565 L 220 -579 L 216 -592 L 213 -604 L 211 -615 L 210 -625 L 210 -633 L 211 -639 L 212 -643 L 215 -645 L 218 -646 L 223 -644 L 228 -641 L 234 -635 L 240 -628 L 247 -619 L 254 -609 L 261 -597 L 269 -584 L 276 -571 L 284 -556 L 291 -541 L 298 -525 L 305 -510 L 310 -494 L 316 -479 L 320 -465 L 324 -452 L 327 -440 L 329 -429 L 330 -419 L 330 -411 L 329 -405 L 328 -401 L 325 -399" fill="none" stroke="rgb(0, 0, 0)" />
<!-- Unhandled operator: array -->
<!-- Unhandled operator: astore -->
<!-- Unhandled operator: concat -->
<path d="M 135 -495 L 135 -225" fill="none" stroke="rgb(0, 0, 0)" />
<!-- Unhandled operator: array -->
<!-- Unhandled operator: astore -->
<!-- Unhandled operator: concat -->
<path d="M 162 -495 L 162 -225" fill="none" stroke="rgb(0, 0, 0)" />
<!-- Unhandled operator: array -->
<!-- Unhandled operator: astore -->
<!-- Unhandled operator: concat -->
<path d="M 189 -495 L 189 -225" fill="none" stroke="rgb(0, 0, 0)" />
<!-- Unhandled operator: array -->
<!-- Unhandled operator: astore -->
<!-- Unhandled operator: concat -->
<path d="M 216 -495 L 216 -225" fill="none" stroke="rgb(0, 0, 0)" />
<!-- Unhandled operator: array -->
<!-- Unhandled operator: astore -->
<!-- Unhandled operator: concat -->
<path d="M 243 -495 L 243 -225" fill="none" stroke="rgb(0, 0, 0)" />
<!-- Unhandled operator: array -->
<!-- Unhandled operator: astore -->
<!-- Unhandled operator: concat -->
<path d="M 270 -495 L 270 -225" fill="none" stroke="rgb(0, 0, 0)" />
<!-- Unhandled operator: array -->
<!-- Unhandled operator: astore -->
<!-- Unhandled operator: concat -->
<path d="M 297 -495 L 297 -225" fill="none" stroke="rgb(0, 0, 0)" />
<!-- Unhandled operator: array -->
<!-- Unhandled operator: astore -->
<!-- Unhandled operator: concat -->
<path d="M 324 -495 L 324 -225" fill="none" stroke="rgb(0, 0, 0)" />
<!-- Unhandled operator: array -->
<!-- Unhandled operator: astore -->
<!-- Unhandled operator: concat -->
<path d="M 351 -495 L 351 -225" fill="none" stroke="rgb(0, 0, 0)" />
<!-- Unhandled operator: array -->
<!-- Unhandled operator: astore -->
<!-- Unhandled operator: concat -->
<path d="M 378 -495 L 378 -225" fill="none" stroke="rgb(0, 0, 0)" />
<!-- Unhandled operator: array -->
<!-- Unhandled operator: astore -->
<!-- Unhandled operator: concat -->
<path d="M 405 -495 L 405 -225" fill="none" stroke="rgb(0, 0, 0)" />
<!-- Unhandled operator: array -->
<!-- Unhandled operator: astore -->
<!-- Unhandled operator: concat -->
<path d="M 135 -495 L 405 -495" fill="none" stroke="rgb(0, 0, 0)" />
<!-- Unhandled operator: array -->
<!-- Unhandled operator: astore -->
<!-- Unhandled operator: concat -->
<path d="M 135 -468 L 405 -468" fill="none" stroke="rgb(0, 0, 0)" />
<!-- Unhandled operator: array -->
<!-- Unhandled operator: astore -->
<!-- Unhandled operator: concat -->
<path d="M 135 -441 L 405 -441" fill="none" stroke="rgb(0, 0, 0)" />
<!-- Unhandled operator: array -->
<!-- Unhandled operator: astore -->
<!-- Unhandled operator: concat -->
<path d="M 135 -414 L 405 -414" fill="none" stroke="rgb(0, 0, 0)" />
<!-- Unhandled operator: array -->
<!-- Unhandled operator: astore -->
<!-- Unhandled operator: concat -->
<path d="M 135 -387 L 405 -387" fill="none" stroke="rgb(0, 0, 0)" />
<!-- Unhandled operator: array -->
<!-- Unhandled operator: astore -->
<!-- Unhandled operator: concat -->
<path d="M 135 -360 L 405 -360" fill="none" stroke="rgb(0, 0, 0)" />
<!-- Unhandled operator: array -->
<!-- Unhandled operator: astore -->
<!-- Unhandled operator: concat -->
<path d="M 135 -333 L 405 -333" fill="none" stroke="rgb(0, 0, 0)" />
<!-- Unhandled operator: array -->
<!-- Unhandled operator: astore -->
<!-- Unhandled operator: concat -->
<path d="M 135 -306 L 405 -306" fill="none" stroke="rgb(0, 0, 0)" />
<!-- Unhandled operator: array -->
<!-- Unhandled operator: astore -->
<!-- Unhandled operator: concat -->
<path d="M 135 -279 L 405 -279" fill="none" stroke="rgb(0, 0, 0)" />
<!-- Unhandled operator: array -->
<!-- Unhandled operator: astore -->
<!-- Unhandled operator: concat -->
<path d="M 135 -252 L 405 -252" fill="none" stroke="rgb(0, 0, 0)" />
<!-- Unhandled operator: array -->
<!-- Unhandled operator: astore -->
<!-- Unhandled operator: concat -->
<path d="M 135 -225 L 405 -225" fill="none" stroke="rgb(0, 0, 0)" />
<!-- Unhandled operator: array -->
<!-- Unhandled operator: astore -->
<!-- Unhandled operator: concat -->
<path d="M 275 -360 C 275 -357.238 272.762 -355 270 -355 C 267.238 -355 265 -357.238 265 -360 C 265 -362.762 267.238 -365 270 -365 C 272.762 -365 275 -362.762 275 -360 Z M 275 -360" fill="none" stroke="rgb(0, 0, 0)" />
<!-- Unhandled operator: array -->
<!-- Unhandled operator: astore -->
<!-- Unhandled operator: concat -->
<path d="M 405 -279 C 405 -249.176 380.824 -225 351 -225" fill="none" stroke="rgb(0, 255, 0)" />
<path d="M 136.441 494.754 L 136.441 495.023" fill="none" stroke="rgb(0, 0, 0)" />
<path d="C 136.969 495.012 137.285 495 137.754 495 C 138.223 495 138.551 495.012 139.078 495.023 L 139.078 494.754 L 138.645 494.73 C 138.234 494.707 138.199 494.637 138.188 493.922 L 138.188 490.113 C 138.188 489.656 138.199 489.469 138.223 489.211 L 139.617 489.211 C 139.875 489.223 139.957 489.281 139.98 489.516 L 140.016 490.219 L 140.297 490.219 C 140.297 489.633 140.309 489.281 140.355 488.777 L 139.16 488.789 C 138.645 488.801 138.551 488.801 138.41 488.801 L 136.992 488.801 C 136.887 488.801 136.406 488.789 135.773 488.777 L 135.164 488.777 C 135.211 489.281 135.223 489.633 135.223 490.219 L 135.504 490.219 L 135.539 489.516 C 135.562 489.281 135.633 489.223 135.902 489.211 L 137.297 489.211 C 137.32 489.492 137.332 489.703 137.332 490.113 L 137.332 493.922 C 137.32 494.648 137.285 494.707 136.875 494.73 Z M 146.09 494.754 L 146.09 495.023 C 146.668 495.012 146.91 495 147.203 495 C 147.484 495 147.746 495.012 148.316 495.023 L 148.316 494.754 L 147.918 494.73 C 147.605 494.707 147.578 494.672 147.578 494.086 L 147.578 492.176 C 147.578 491.766 148.176 491.332 148.73 491.332 C 149.324 491.332 149.723 491.777 149.723 492.469 L 149.723 495.023 C 150.133 495.012 150.273 495 150.438 495 C 150.566 495 150.73 495.012 151.176 495.023 L 151.176 494.754 L 150.812 494.73 C 150.496 494.707 150.484 494.672 150.473 494.086 L 150.473 492.34 C 150.473 491.297 149.98 490.781 148.973 490.781 C 148.645 490.781 148.457 490.828 148.262 491.004 L 147.578 491.602 L 147.578 488.543 L 147.5 488.461 C 147.102 488.613 146.809 488.695 146.094 488.801 L 146.094 489.047 L 146.598 489.047 C 146.762 489.047 146.832 489.152 146.832 489.422 L 146.832 494.086 C 146.816 494.672 146.805 494.707 146.492 494.73 Z M 158.195 490.816 L 158.113 490.781 C 157.68 490.969 157.188 491.098 156.719 491.145 L 156.719 491.402 L 157.047 491.402 C 157.422 491.414 157.434 491.449 157.445 492.059 L 157.445 494.086 C 157.445 494.672 157.422 494.707 157.105 494.73 L 156.695 494.754 L 156.695 495.023 C 157.328 495.012 157.586 495 157.82 495 C 158.055 495 158.312 495.012 158.945 495.023 L 158.945 494.754 L 158.535 494.73 C 158.219 494.695 158.207 494.672 158.195 494.086 Z M 157.785 488.812 C 157.516 488.812 157.281 489.047 157.281 489.316 C 157.281 489.586 157.516 489.82 157.773 489.82 C 158.043 489.82 158.277 489.586 158.277 489.316 C 158.277 489.07 158.043 488.812 157.785 488.812 Z M 162.109 493.711 C 162.109 494.332 162.086 494.602 162.016 494.965 C 162.496 495.117 162.836 495.176 163.246 495.176 C 164.43 495.176 165.262 494.555 165.262 493.664 C 165.262 493.383 165.184 493.184 165.016 493.008 C 164.781 492.773 164.488 492.668 163.691 492.516 C 162.953 492.375 162.707 492.188 162.707 491.777 C 162.707 491.332 163.012 491.074 163.574 491.074 C 164.184 491.074 164.641 491.391 164.641 491.812 L 164.641 492.023 L 164.887 492.023 C 164.902 491.496 164.914 491.285 164.934 491.004 C 164.441 490.84 164.137 490.781 163.762 490.781 C 162.719 490.781 162.074 491.273 162.074 492.082 C 162.074 492.527 162.273 492.809 162.695 493.008 C 162.93 493.113 163.41 493.266 164.02 493.395 C 164.43 493.488 164.594 493.664 164.594 494.016 C 164.594 494.508 164.148 494.848 163.516 494.848 C 162.848 494.848 162.391 494.531 162.391 494.086 L 162.391 493.711 Z M 175.566 490.816 L 175.484 490.781 C 175.051 490.969 174.559 491.098 174.09 491.145 L 174.09 491.402 L 174.418 491.402 C 174.793 491.414 174.805 491.449 174.816 492.059 L 174.816 494.086 C 174.816 494.672 174.793 494.707 174.477 494.73 L 174.066 494.754 L 174.066 495.023 C 174.699 495.012 174.957 495 175.191 495 C 175.426 495 175.684 495.012 176.316 495.023 L 176.316 494.754 L 175.906 494.73 C 175.59 494.695 175.578 494.672 175.566 494.086 Z M 175.156 488.812 C 174.887 488.812 174.652 489.047 174.652 489.316 C 174.652 489.586 174.887 489.82 175.145 489.82 C 175.414 489.82 175.648 489.586 175.648 489.316 C 175.648 489.07 175.414 488.812 175.156 488.812 Z M 179.48 493.711 C 179.48 494.332 179.457 494.602 179.387 494.965 C 179.867 495.117 180.207 495.176 180.617 495.176 C 181.801 495.176 182.633 494.555 182.633 493.664 C 182.633 493.383 182.551 493.184 182.387 493.008 C 182.152 492.773 181.859 492.668 181.062 492.516 C 180.324 492.375 180.078 492.188 180.078 491.777 C 180.078 491.332 180.383 491.074 180.945 491.074 C 181.555 491.074 182.012 491.391 182.012 491.812 L 182.012 492.023 L 182.258 492.023 C 182.27 491.496 182.281 491.285 182.305 491.004 C 181.812 490.84 181.508 490.781 181.133 490.781 C 180.09 490.781 179.445 491.273 179.445 492.082 C 179.445 492.527 179.645 492.809 180.066 493.008 C 180.301 493.113 180.781 493.266 181.391 493.395 C 181.801 493.488 181.965 493.664 181.965 494.016 C 181.965 494.508 181.52 494.848 180.887 494.848 C 180.219 494.848 179.762 494.531 179.762 494.086 L 179.762 493.711 Z M 192.199 490.781 L 192.48 489.012 C 192.492 489 192.492 488.977 192.492 488.965 C 192.492 488.789 192.293 488.613 192.105 488.613 C 191.906 488.613 191.719 488.789 191.719 488.965 L 191.719 489.012 L 192.012 490.781 Z M 193.828 490.781 L 194.109 489.012 C 194.121 489 194.121 488.977 194.121 488.965 C 194.121 488.789 193.922 488.613 193.734 488.613 C 193.535 488.613 193.348 488.789 193.348 488.965 L 193.348 489.012 L 193.641 490.781 Z M 201.512 492.199 C 201.512 491.789 201.559 491.414 201.641 491.098 C 201.277 490.875 200.973 490.781 200.598 490.781 C 200.152 490.781 199.66 490.945 199.121 491.297 C 198.488 491.684 198.16 492.305 198.16 493.113 C 198.16 494.32 199.004 495.176 200.223 495.176 C 200.691 495.176 201.359 495.012 201.453 494.871 L 201.641 494.59 L 201.559 494.449 C 201.207 494.637 200.938 494.707 200.609 494.707 C 199.613 494.707 198.957 493.934 198.957 492.75 C 198.957 491.789 199.402 491.25 200.211 491.25 C 200.621 491.25 201.043 491.414 201.207 491.648 L 201.266 492.199 Z M 207.605 490.816 L 207.523 490.781 C 207.09 490.969 206.598 491.098 206.129 491.145 L 206.129 491.402 L 206.457 491.402 C 206.832 491.414 206.844 491.449 206.855 492.059 L 206.855 494.086 C 206.855 494.672 206.832 494.707 206.516 494.73 L 206.105 494.754 L 206.105 495.023 C 206.738 495.012 206.996 495 207.23 495 C 207.465 495 207.723 495.012 208.355 495.023 L 208.355 494.754 L 207.945 494.73 C 207.629 494.695 207.617 494.672 207.605 494.086 Z M 207.195 488.812 C 206.926 488.812 206.691 489.047 206.691 489.316 C 206.691 489.586 206.926 489.82 207.184 489.82 C 207.453 489.82 207.688 489.586 207.688 489.316 C 207.688 489.07 207.453 488.812 207.195 488.812 Z M 211.344 494.754 L 211.344 495.023 C 211.941 495.012 212.199 495 212.457 495 C 212.668 495 212.996 495.012 213.734 495.023 L 213.734 494.754 L 213.266 494.73 C 212.855 494.707 212.844 494.695 212.844 494.086 L 212.844 492.539 C 212.844 491.988 213.207 491.543 213.652 491.543 C 213.922 491.543 214.109 491.672 214.25 491.953 L 214.438 491.953 L 214.52 490.875 C 214.414 490.816 214.262 490.781 214.098 490.781 C 213.828 490.781 213.547 490.922 213.348 491.145 L 212.844 491.742 L 212.844 490.816 L 212.762 490.781 C 212.328 490.969 211.836 491.098 211.367 491.145 L 211.367 491.402 L 211.695 491.402 C 212.07 491.414 212.082 491.449 212.094 492.059 L 212.094 494.086 C 212.082 494.672 212.07 494.707 211.754 494.73 Z M 221.852 492.199 C 221.852 491.789 221.898 491.414 221.98 491.098 C 221.617 490.875 221.312 490.781 220.938 490.781 C 220.492 490.781 220 490.945 219.461 491.297 C 218.828 491.684 218.5 492.305 218.5 493.113 C 218.5 494.32 219.344 495.176 220.562 495.176 C 221.031 495.176 221.699 495.012 221.793 494.871 L 221.98 494.59 L 221.898 494.449 C 221.547 494.637 221.277 494.707 220.949 494.707 C 219.953 494.707 219.297 493.934 219.297 492.75 C 219.297 491.789 219.742 491.25 220.551 491.25 C 220.961 491.25 221.383 491.414 221.547 491.648 L 221.605 492.199 Z M 226.445 494.754 L 226.445 495.023 C 227.078 495.012 227.336 495 227.57 495 C 227.805 495 228.062 495.012 228.695 495.023 L 228.695 494.754 L 228.285 494.73 C 227.969 494.695 227.957 494.672 227.945 494.086 L 227.945 488.543 L 227.863 488.461 C 227.48 488.613 227.172 488.695 226.469 488.801 L 226.469 489.047 L 226.973 489.047 C 227.125 489.047 227.199 489.152 227.199 489.422 L 227.199 494.086 C 227.184 494.672 227.172 494.707 226.855 494.73 Z M 235.438 494.367 L 235.316 494.285 C 234.742 494.625 234.531 494.707 234.145 494.707 C 233.559 494.707 233.066 494.438 232.82 494.004 C 232.645 493.711 232.586 493.453 232.562 492.926 L 233.887 492.926 C 234.531 492.926 234.941 492.891 235.516 492.809 C 235.516 492.68 235.527 492.598 235.527 492.492 C 235.527 491.449 234.859 490.781 233.84 490.781 C 233.523 490.781 233.137 490.898 232.762 491.109 C 232.023 491.543 231.73 492.094 231.73 493.043 C 231.73 493.594 231.859 494.086 232.105 494.426 C 232.469 494.906 233.066 495.176 233.746 495.176 C 234.086 495.176 234.414 495.105 234.777 494.941 C 235.012 494.848 235.211 494.73 235.246 494.672 Z M 234.73 492.598 C 234.273 492.609 234.051 492.621 233.723 492.621 C 233.301 492.621 233.066 492.609 232.586 492.574 C 232.586 492.152 232.625 491.953 232.738 491.707 C 232.926 491.32 233.301 491.074 233.734 491.074 C 234.039 491.074 234.273 491.191 234.438 491.438 C 234.637 491.73 234.695 491.988 234.73 492.598 Z M 241.234 494.004 C 240.965 494.004 240.719 494.25 240.719 494.52 C 240.719 494.801 240.965 495.047 241.223 495.047 C 241.516 495.047 241.773 494.801 241.773 494.52 C 241.773 494.25 241.516 494.004 241.234 494.004 Z M 244.691 497.262 L 244.691 497.531 C 245.312 497.508 245.57 497.508 245.816 497.508 C 246.062 497.508 246.32 497.508 246.941 497.531 L 246.941 497.262 L 246.531 497.227 C 246.215 497.191 246.203 497.18 246.191 496.582 L 246.191 494.883 C 246.473 495.047 246.754 495.105 247.164 495.105 C 247.434 495.105 247.656 495.059 247.797 494.965 L 248.828 494.297 C 249.18 494.062 249.602 493.137 249.602 492.562 C 249.602 491.566 248.781 490.781 247.738 490.781 C 247.398 490.781 247.082 490.863 246.93 491.004 L 246.191 491.684 L 246.191 490.816 L 246.109 490.781 C 245.676 490.969 245.184 491.098 244.715 491.145 L 244.715 491.402 L 245.043 491.402 C 245.418 491.414 245.43 491.449 245.441 492.059 L 245.441 496.582 C 245.43 497.18 245.418 497.191 245.102 497.227 Z M 246.191 492.246 C 246.191 492.117 246.238 492.023 246.355 491.871 C 246.613 491.531 247 491.367 247.434 491.367 C 248.289 491.367 248.828 491.953 248.828 492.891 C 248.828 493.898 248.219 494.648 247.41 494.648 C 246.918 494.648 246.543 494.484 246.191 494.121 Z M 255.625 494.754 L 255.625 495.023 C 256.262 495.012 256.516 495 256.75 495 C 256.984 495 257.242 495.012 257.875 495.023 L 257.875 494.754 L 257.469 494.73 C 257.148 494.695 257.137 494.672 257.125 494.086 L 257.125 488.543 L 257.047 488.461 C 256.66 488.613 256.355 488.695 255.652 488.801 L 255.652 489.047 L 256.156 489.047 C 256.309 489.047 256.379 489.152 256.379 489.422 L 256.379 494.086 C 256.367 494.672 256.355 494.707 256.039 494.73 Z M 263.184 490.781 C 261.871 490.781 260.969 491.707 260.969 493.043 C 260.969 494.32 261.754 495.176 262.926 495.176 C 264.309 495.176 265.305 494.215 265.305 492.867 C 265.305 491.648 264.414 490.781 263.184 490.781 Z M 263.02 491.074 C 263.863 491.074 264.461 491.977 264.461 493.195 C 264.461 494.238 264.016 494.883 263.277 494.883 C 262.398 494.883 261.801 494.016 261.801 492.738 C 261.801 491.66 262.234 491.074 263.02 491.074 Z M 271.383 491.566 L 271.383 494.156 C 271.383 494.824 271.688 495.105 272.379 495.105 C 272.578 495.105 272.801 495.059 272.848 495 L 273.281 494.52 L 273.164 494.367 C 272.93 494.508 272.812 494.543 272.637 494.543 C 272.285 494.543 272.145 494.355 272.145 493.922 L 272.145 491.566 L 273.293 491.566 L 273.375 491.074 L 272.145 491.133 L 272.145 490.793 C 272.145 490.418 272.168 490.031 272.238 489.516 L 272.133 489.41 C 271.91 489.551 271.652 489.668 271.371 489.75 C 271.395 490.008 271.406 490.184 271.406 490.465 L 271.406 491.098 L 270.703 491.414 L 270.703 491.602 Z M 277.32 490.781 L 277.602 489.012 C 277.613 489 277.613 488.977 277.613 488.965 C 277.613 488.789 277.414 488.613 277.227 488.613 C 277.027 488.613 276.84 488.789 276.84 488.965 L 276.84 489.012 L 277.133 490.781 Z M 278.949 490.781 L 279.23 489.012 C 279.242 489 279.242 488.977 279.242 488.965 C 279.242 488.789 279.043 488.613 278.855 488.613 C 278.656 488.613 278.469 488.789 278.469 488.965 L 278.469 489.012 L 278.762 490.781 Z M 284.16 494.004 C 283.891 494.004 283.645 494.25 283.645 494.52 C 283.645 494.801 283.891 495.047 284.148 495.047 C 284.441 495.047 284.699 494.801 284.699 494.52 C 284.699 494.25 284.441 494.004 284.16 494.004 Z M 136.441 413.754 L 136.441 414.023 C 136.969 414.012 137.285 414 137.754 414 C 138.223 414 138.551 414.012 139.078 414.023 L 139.078 413.754 L 138.645 413.73 C 138.234 413.707 138.199 413.637 138.188 412.922 L 138.188 409.113 C 138.188 408.656 138.199 408.469 138.223 408.211 L 139.617 408.211 C 139.875 408.223 139.957 408.281 139.98 408.516 L 140.016 409.219 L 140.297 409.219 C 140.297 408.633 140.309 408.281 140.355 407.777 L 139.16 407.789 C 138.645 407.801 138.551 407.801 138.41 407.801 L 136.992 407.801 C 136.887 407.801 136.406 407.789 135.773 407.777 L 135.164 407.777 C 135.211 408.281 135.223 408.633 135.223 409.219 L 135.504 409.219 L 135.539 408.516 C 135.562 408.281 135.633 408.223 135.902 408.211 L 137.297 408.211 C 137.32 408.492 137.332 408.703 137.332 409.113 L 137.332 412.922 C 137.32 413.648 137.285 413.707 136.875 413.73 Z M 140.574 413.754 L 140.574 414.023 C 141.148 414.012 141.395 414 141.688 414 C 141.969 414 142.227 414.012 142.801 414.023 L 142.801 413.754 L 142.402 413.73 C 142.086 413.707 142.062 413.672 142.062 413.086 L 142.062 411.176 C 142.062 410.766 142.66 410.332 143.211 410.332 C 143.809 410.332 144.207 410.777 144.207 411.469 L 144.207 414.023 C 144.617 414.012 144.758 414 144.922 414 C 145.051 414 145.215 414.012 145.66 414.023 L 145.66 413.754 L 145.297 413.73 C 144.98 413.707 144.969 413.672 144.957 413.086 L 144.957 411.34 C 144.957 410.297 144.465 409.781 143.457 409.781 C 143.129 409.781 142.941 409.828 142.742 410.004 L 142.062 410.602 L 142.062 407.543 L 141.98 407.461 C 141.582 407.613 141.289 407.695 140.574 407.801 L 140.574 408.047 L 141.078 408.047 C 141.242 408.047 141.312 408.152 141.312 408.422 L 141.312 413.086 C 141.301 413.672 141.289 413.707 140.973 413.73 Z M 147.441 409.816 L 147.359 409.781 C 146.926 409.969 146.434 410.098 145.965 410.145 L 145.965 410.402 L 146.293 410.402 C 146.668 410.414 146.68 410.449 146.691 411.059 L 146.691 413.086 C 146.691 413.672 146.668 413.707 146.352 413.73 L 145.941 413.754 L 145.941 414.023 C 146.574 414.012 146.832 414 147.066 414 C 147.301 414 147.559 414.012 148.191 414.023 L 148.191 413.754 L 147.781 413.73 C 147.465 413.695 147.453 413.672 147.441 413.086 Z M 147.031 407.812 C 146.762 407.812 146.527 408.047 146.527 408.316 C 146.527 408.586 146.762 408.82 147.02 408.82 C 147.289 408.82 147.523 408.586 147.523 408.316 C 147.523 408.07 147.289 407.812 147.031 407.812 Z M 148.738 412.711 C 148.738 413.332 148.715 413.602 148.645 413.965 C 149.125 414.117 149.465 414.176 149.875 414.176 C 151.059 414.176 151.891 413.555 151.891 412.664 C 151.891 412.383 151.809 412.184 151.645 412.008 C 151.41 411.773 151.117 411.668 150.32 411.516 C 149.582 411.375 149.336 411.188 149.336 410.777 C 149.336 410.332 149.641 410.074 150.203 410.074 C 150.812 410.074 151.27 410.391 151.27 410.812 L 151.27 411.023 L 151.516 411.023 C 151.527 410.496 151.539 410.285 151.562 410.004 C 151.07 409.84 150.766 409.781 150.391 409.781 C 149.348 409.781 148.703 410.273 148.703 411.082 C 148.703 411.527 148.902 411.809 149.324 412.008 C 149.559 412.113 150.039 412.266 150.648 412.395 C 151.059 412.488 151.223 412.664 151.223 413.016 C 151.223 413.508 150.777 413.848 150.145 413.848 C 149.477 413.848 149.02 413.531 149.02 413.086 L 149.02 412.711 Z M 156.129 409.816 L 156.047 409.781 C 155.613 409.969 155.121 410.098 154.652 410.145 L 154.652 410.402 L 154.98 410.402 C 155.355 410.414 155.367 410.449 155.379 411.059 L 155.379 413.086 C 155.379 413.672 155.355 413.707 155.039 413.73 L 154.629 413.754 L 154.629 414.023 C 155.262 414.012 155.52 414 155.754 414 C 155.988 414 156.246 414.012 156.879 414.023 L 156.879 413.754 L 156.469 413.73 C 156.152 413.695 156.141 413.672 156.129 413.086 Z M 155.719 407.812 C 155.449 407.812 155.215 408.047 155.215 408.316 C 155.215 408.586 155.449 408.82 155.707 408.82 C 155.977 408.82 156.211 408.586 156.211 408.316 C 156.211 408.07 155.977 407.812 155.719 407.812 Z M 157.422 412.711 C 157.422 413.332 157.398 413.602 157.328 413.965 C 157.809 414.117 158.148 414.176 158.559 414.176 C 159.742 414.176 160.574 413.555 160.574 412.664 C 160.574 412.383 160.492 412.184 160.328 412.008 C 160.094 411.773 159.801 411.668 159.004 411.516 C 158.266 411.375 158.02 411.188 158.02 410.777 C 158.02 410.332 158.324 410.074 158.887 410.074 C 159.496 410.074 159.953 410.391 159.953 410.812 L 159.953 411.023 L 160.199 411.023 C 160.211 410.496 160.223 410.285 160.246 410.004 C 159.754 409.84 159.449 409.781 159.074 409.781 C 158.031 409.781 157.387 410.273 157.387 411.082 C 157.387 411.527 157.586 411.809 158.008 412.008 C 158.242 412.113 158.723 412.266 159.332 412.395 C 159.742 412.488 159.906 412.664 159.906 413.016 C 159.906 413.508 159.461 413.848 158.828 413.848 C 158.16 413.848 157.703 413.531 157.703 413.086 L 157.703 412.711 Z M 163.488 412.711 C 163.488 413.332 163.465 413.602 163.395 413.965 C 163.875 414.117 164.215 414.176 164.625 414.176 C 165.809 414.176 166.641 413.555 166.641 412.664 C 166.641 412.383 166.559 412.184 166.395 412.008 C 166.16 411.773 165.867 411.668 165.07 411.516 C 164.332 411.375 164.086 411.188 164.086 410.777 C 164.086 410.332 164.391 410.074 164.953 410.074 C 165.562 410.074 166.02 410.391 166.02 410.812 L 166.02 411.023 L 166.266 411.023 C 166.277 410.496 166.289 410.285 166.312 410.004 C 165.82 409.84 165.516 409.781 165.141 409.781 C 164.098 409.781 163.453 410.273 163.453 411.082 C 163.453 411.527 163.652 411.809 164.074 412.008 C 164.309 412.113 164.789 412.266 165.398 412.395 C 165.809 412.488 165.973 412.664 165.973 413.016 C 165.973 413.508 165.527 413.848 164.895 413.848 C 164.227 413.848 163.77 413.531 163.77 413.086 L 163.77 412.711 Z M 167.082 413.754 L 167.082 414.023 C 167.715 414.012 167.973 414 168.23 414 C 168.512 414 168.746 414.012 169.297 414.023 L 169.297 413.754 L 168.922 413.73 C 168.605 413.707 168.594 413.672 168.594 413.086 L 168.594 411.176 C 168.594 410.766 169.18 410.332 169.719 410.332 C 170.211 410.332 170.539 410.789 170.539 411.469 L 170.539 413.086 C 170.539 413.672 170.516 413.707 170.211 413.73 L 169.789 413.754 L 169.789 414.023 C 170.422 414.012 170.68 414 170.914 414 C 171.148 414 171.406 414.012 172.039 414.023 L 172.039 413.754 L 171.629 413.73 C 171.312 413.695 171.301 413.672 171.301 413.086 L 171.301 411.176 C 171.301 410.766 171.887 410.332 172.426 410.332 C 172.918 410.332 173.246 410.789 173.246 411.469 L 173.246 414.023 C 173.656 414.012 173.809 414 173.961 414 C 174.102 414 174.266 414.012 174.758 414.023 L 174.758 413.754 L 174.336 413.73 C 174.02 413.695 174.02 413.672 174.008 413.086 L 174.008 411.223 C 174.008 410.332 173.48 409.781 172.66 409.781 C 172.332 409.781 172.086 409.852 171.922 410.004 L 171.23 410.613 C 170.949 410.016 170.586 409.781 169.953 409.781 C 169.625 409.781 169.367 409.852 169.215 410.004 L 168.594 410.578 L 168.594 409.816 L 168.512 409.781 C 168.066 409.969 167.574 410.098 167.105 410.145 L 167.105 410.402 L 167.434 410.402 C 167.809 410.414 167.82 410.449 167.832 411.059 L 167.832 413.086 C 167.82 413.672 167.809 413.707 167.504 413.73 Z M 177.805 413.262 L 177.758 414.023 C 178.203 414.012 178.332 414 178.461 414 C 178.578 414 178.625 414 178.941 414.023 L 179.129 414.023 L 179.129 413.754 L 178.777 413.742 C 178.543 413.707 178.531 413.684 178.52 413.215 L 178.52 411.574 C 178.52 410.262 178.145 409.781 177.102 409.781 C 176.703 409.781 176.352 409.875 176.012 410.086 L 175.531 410.367 L 175.531 410.953 L 175.766 411.023 L 175.883 410.742 C 176.07 410.32 176.164 410.262 176.574 410.262 C 177.43 410.262 177.781 410.59 177.805 411.41 L 176.914 411.574 C 175.684 411.797 175.18 412.219 175.18 413.016 C 175.18 413.707 175.59 414.105 176.305 414.105 C 176.48 414.105 176.621 414.082 176.691 414.035 Z M 177.805 412.887 C 177.547 413.25 176.973 413.59 176.621 413.59 C 176.258 413.59 175.953 413.273 175.953 412.875 C 175.953 412.547 176.129 412.23 176.387 412.055 C 176.621 411.926 177.113 411.797 177.805 411.691 Z M 179.574 413.754 L 179.574 414.023 C 180.207 414.012 180.465 414 180.699 414 C 180.934 414 181.191 414.012 181.824 414.023 L 181.824 413.754 L 181.414 413.73 C 181.098 413.695 181.086 413.672 181.074 413.086 L 181.074 407.543 L 180.992 407.461 C 180.605 407.613 180.301 407.695 179.598 407.801 L 179.598 408.047 L 180.102 408.047 C 180.254 408.047 180.324 408.152 180.324 408.422 L 180.324 413.086 C 180.312 413.672 180.301 413.707 179.984 413.73 Z M 182.195 413.754 L 182.195 414.023 C 182.828 414.012 183.086 414 183.32 414 C 183.555 414 183.812 414.012 184.445 414.023 L 184.445 413.754 L 184.035 413.73 C 183.719 413.695 183.707 413.672 183.695 413.086 L 183.695 407.543 L 183.613 407.461 C 183.227 407.613 182.922 407.695 182.219 407.801 L 182.219 408.047 L 182.723 408.047 C 182.875 408.047 182.945 408.152 182.945 408.422 L 182.945 413.086 C 182.934 413.672 182.922 413.707 182.605 413.73 Z M 186.945 416.262 L 186.945 416.531 C 187.566 416.508 187.824 416.508 188.07 416.508 C 188.316 416.508 188.574 416.508 189.195 416.531 L 189.195 416.262 L 188.785 416.227 C 188.469 416.191 188.457 416.18 188.445 415.582 L 188.445 413.883 C 188.727 414.047 189.008 414.105 189.418 414.105 C 189.688 414.105 189.91 414.059 190.051 413.965 L 191.082 413.297 C 191.434 413.062 191.855 412.137 191.855 411.562 C 191.855 410.566 191.035 409.781 189.992 409.781 C 189.652 409.781 189.336 409.863 189.184 410.004 L 188.445 410.684 L 188.445 409.816 L 188.363 409.781 C 187.93 409.969 187.438 410.098 186.969 410.145 L 186.969 410.402 L 187.297 410.402 C 187.672 410.414 187.684 410.449 187.695 411.059 L 187.695 415.582 C 187.684 416.18 187.672 416.191 187.355 416.227 Z M 188.445 411.246 C 188.445 411.117 188.492 411.023 188.609 410.871 C 188.867 410.531 189.254 410.367 189.688 410.367 C 190.543 410.367 191.082 410.953 191.082 411.891 C 191.082 412.898 190.473 413.648 189.664 413.648 C 189.172 413.648 188.797 413.484 188.445 413.121 Z M 192.473 413.754 L 192.473 414.023 C 193.07 414.012 193.328 414 193.586 414 C 193.797 414 194.125 414.012 194.863 414.023 L 194.863 413.754 L 194.395 413.73 C 193.984 413.707 193.973 413.695 193.973 413.086 L 193.973 411.539 C 193.973 410.988 194.336 410.543 194.781 410.543 C 195.051 410.543 195.238 410.672 195.379 410.953 L 195.566 410.953 L 195.648 409.875 C 195.543 409.816 195.391 409.781 195.227 409.781 C 194.957 409.781 194.676 409.922 194.477 410.145 L 193.973 410.742 L 193.973 409.816 L 193.891 409.781 C 193.457 409.969 192.965 410.098 192.496 410.145 L 192.496 410.402 L 192.824 410.402 C 193.199 410.414 193.211 410.449 193.223 411.059 L 193.223 413.086 C 193.211 413.672 193.199 413.707 192.883 413.73 Z M 197.527 409.816 L 197.445 409.781 C 197.012 409.969 196.52 410.098 196.051 410.145 L 196.051 410.402 L 196.379 410.402 C 196.754 410.414 196.766 410.449 196.777 411.059 L 196.777 413.086 C 196.777 413.672 196.754 413.707 196.438 413.73 L 196.027 413.754 L 196.027 414.023 C 196.66 414.012 196.918 414 197.152 414 C 197.387 414 197.645 414.012 198.277 414.023 L 198.277 413.754 L 197.867 413.73 C 197.551 413.695 197.539 413.672 197.527 413.086 Z M 197.117 407.812 C 196.848 407.812 196.613 408.047 196.613 408.316 C 196.613 408.586 196.848 408.82 197.105 408.82 C 197.375 408.82 197.609 408.586 197.609 408.316 C 197.609 408.07 197.375 407.812 197.117 407.812 Z M 202.152 414.023 C 202.562 414.012 202.703 414 202.867 414 C 202.996 414 203.16 414.012 203.605 414.023 L 203.605 413.754 L 203.242 413.73 C 202.926 413.707 202.914 413.672 202.902 413.086 L 202.902 411.34 C 202.902 410.297 202.41 409.781 201.402 409.781 C 201.074 409.781 200.887 409.828 200.688 410.004 L 200.008 410.602 L 200.008 409.816 L 199.926 409.781 C 199.492 409.969 198.988 410.098 198.52 410.145 L 198.52 410.402 L 198.859 410.402 C 199.223 410.414 199.246 410.449 199.258 411.059 L 199.258 413.086 C 199.258 413.672 199.223 413.707 198.918 413.73 L 198.52 413.754 L 198.52 414.023 C 199.094 414.012 199.34 414 199.633 414 C 199.914 414 200.172 414.012 200.746 414.023 L 200.746 413.754 L 200.348 413.73 C 200.031 413.707 200.008 413.672 200.008 413.086 L 200.008 411.176 C 200.008 410.766 200.605 410.332 201.156 410.332 C 201.754 410.332 202.152 410.777 202.152 411.469 Z M 204.578 410.566 L 204.578 413.156 C 204.578 413.824 204.883 414.105 205.574 414.105 C 205.773 414.105 205.996 414.059 206.043 414 L 206.477 413.52 L 206.359 413.367 C 206.125 413.508 206.008 413.543 205.832 413.543 C 205.48 413.543 205.34 413.355 205.34 412.922 L 205.34 410.566 L 206.488 410.566 L 206.57 410.074 L 205.34 410.133 L 205.34 409.793 C 205.34 409.418 205.363 409.031 205.434 408.516 L 205.328 408.41 C 205.105 408.551 204.848 408.668 204.566 408.75 C 204.59 409.008 204.602 409.184 204.602 409.465 L 204.602 410.098 L 203.898 410.414 L 203.898 410.602 Z M 207.742 413.004 C 207.473 413.004 207.227 413.25 207.227 413.52 C 207.227 413.801 207.473 414.047 207.73 414.047 C 208.023 414.047 208.281 413.801 208.281 413.52 C 208.281 413.25 208.023 413.004 207.742 413.004 Z M 207.742 413.004" fill="rgb(0, 0, 0)" stroke="none" />
</g>
</svg>